<?xml version="1.0" encoding="iso-8859-1"?>
<!-- Generator: Adobe Illustrator 18.1.1, SVG Export Plug-In . SVG Version: 6.00 Build 0)  -->
<svg version="1.1" id="Capa_1" xmlns="http://www.w3.org/2000/svg" xmlns:xlink="http://www.w3.org/1999/xlink" x="0px" y="0px"
	 viewBox="0 0 18.134 18.134" style="enable-background:new 0 0 18.134 18.134;" xml:space="preserve">
<g>
	<path style="fill:#010002;" d="M16.281,0H1.854C0.83,0,0,0.829,0,1.854V16.28c0,1.025,0.831,1.854,1.854,1.854H16.28
		c1.024,0,1.854-0.828,1.854-1.854V1.854C18.135,0.829,17.305,0,16.281,0z M11.645,10.55c1.331,0,2.413,1.082,2.413,2.412
		c0,1.331-1.083,2.414-2.413,2.414H7.937H7.928c-0.659,0-1.293-0.148-1.835-0.43c-0.646-0.332-1.061-0.795-1.293-1.127
		c-0.168-0.237-0.312-0.502-0.426-0.782c-0.109-0.271-0.187-0.548-0.239-0.841c-0.037-0.219-0.057-0.428-0.058-0.623V5.172
		c0-1.331,1.083-2.413,2.413-2.413c1.331,0,2.413,1.082,2.413,2.413v0.384h2.741c1.331,0,2.413,1.082,2.413,2.413
		c0,1.33-1.083,2.412-2.413,2.412H8.903v0.169C8.903,10.55,11.645,10.55,11.645,10.55z"/>
	<path style="fill:#010002;" d="M11.645,9.3c0.735,0,1.331-0.596,1.331-1.331s-0.596-1.331-1.331-1.331H7.822V5.172
		c0-0.733-0.596-1.331-1.332-1.331c-0.734,0-1.331,0.598-1.331,1.331v6.396c0,0.058,0.002,0.216,0.042,0.443
		c0.03,0.172,0.08,0.383,0.175,0.62c0.072,0.179,0.17,0.372,0.308,0.567c0.204,0.291,0.51,0.584,0.906,0.785
		c0.393,0.205,0.856,0.31,1.337,0.31c0.003,0,0.006,0,0.009,0c1.448,0,3.708,0,3.708,0c0.735,0,1.331-0.597,1.331-1.331
		s-0.596-1.33-1.331-1.33c0,0-2.26,0-3.708,0c-0.043,0-0.075-0.004-0.095-0.007c-0.006-0.017-0.013-0.04-0.016-0.06
		c-0.002-0.012-0.004-0.022-0.004-0.029V9.3H11.645z"/>
</g>
<g>
</g>
<g>
</g>
<g>
</g>
<g>
</g>
<g>
</g>
<g>
</g>
<g>
</g>
<g>
</g>
<g>
</g>
<g>
</g>
<g>
</g>
<g>
</g>
<g>
</g>
<g>
</g>
<g>
</g>
</svg>
